<svg width="512" height="512" viewBox="0 0 512 512" fill="none" xmlns="http://www.w3.org/2000/svg">
<g clip-path="url(#clip0_1914_4464)">
<path d="M341.536 458.932C332.367 458.932 323.676 454.551 318.27 447.023L237.73 334.503C231.639 325.948 230.818 314.86 235.608 305.552C240.398 296.244 249.91 290.426 260.379 290.426H297.673C309.785 290.426 319.639 280.571 319.639 268.456V204.737C319.639 192.622 309.785 182.767 297.673 182.767H214.19C202.078 182.767 192.224 192.622 192.224 204.737V326.085C192.224 367.013 158.968 400.55 118.048 400.824L98.2717 400.961C98.2717 400.961 97.9295 400.961 97.7242 400.961C77.8799 400.961 59.1988 393.295 45.1025 379.265C30.8693 365.097 23 346.275 23 326.222V127.739C23 86.5367 56.5301 53 97.7242 53H414.276C455.47 53 489 86.5367 489 127.739V326.085C489 367.287 455.47 400.824 414.276 400.824H384.92L367.95 441.41C363.981 450.992 355.085 457.631 344.821 458.795C343.726 458.932 342.699 459 341.604 459L341.536 458.932ZM266.059 321.226L340.989 425.874L357.001 387.615C361.449 376.938 371.782 370.093 383.346 370.093H414.139C438.363 370.093 458.07 350.382 458.07 326.153V127.739C458.07 103.51 438.363 83.7991 414.139 83.7991H97.5874C73.3636 83.7991 53.6561 103.51 53.6561 127.739V326.153C53.6561 337.925 58.2408 349.013 66.6575 357.363C74.9374 365.576 85.9545 370.162 97.6558 370.162C97.7927 370.162 97.8611 370.162 97.9979 370.162L117.774 370.025C141.861 369.82 161.431 350.108 161.431 326.085V204.737C161.431 175.649 185.108 151.968 214.19 151.968H297.673C326.755 151.968 350.432 175.649 350.432 204.737V268.456C350.432 297.544 326.755 321.226 297.673 321.226H266.059Z" fill="white"/>
</g>
<defs>
<clipPath id="clip0_1914_4464">
<rect width="512" height="512" fill="white"/>
</clipPath>
</defs>
</svg>
